<?xml version="1.0" encoding="utf-8"?>
<!-- Generator: Adobe Illustrator 26.4.1, SVG Export Plug-In . SVG Version: 6.00 Build 0)  -->
<svg version="1.1" id="Layer_1" xmlns="http://www.w3.org/2000/svg" xmlns:xlink="http://www.w3.org/1999/xlink" x="0px" y="0px"
	 viewBox="0 0 566.93 146.96" style="enable-background:new 0 0 566.93 146.96;" xml:space="preserve">
<style type="text/css">
	.st0{fill:#686B74;}
	.st1{fill:#393B40;}
</style>
<g>
	<g>
		<g>
			<path class="st0" d="M319.33,0h122.24c0.65,0,1.18,0.53,1.18,1.18v12.96c0,0.65-0.53,1.18-1.18,1.18h-24.1v90.76
				c0,0.65-0.53,1.18-1.18,1.18h-12.96c-0.65,0-1.18-0.53-1.18-1.18V15.33h-82.81c-0.65,0-1.18-0.53-1.18-1.18V1.18
				C318.14,0.53,318.67,0,319.33,0z"/>
		</g>
		<g>
			<path class="st0" d="M543.94,0c12.7,0,22.99,10.29,22.99,22.99v83.1c0,0.65-0.53,1.18-1.18,1.18h-12.96
				c-0.65,0-1.18-0.53-1.18-1.18V61.3h-81.99v44.79c0,0.65-0.53,1.18-1.18,1.18h-12.96c-0.65,0-1.18-0.53-1.18-1.18v-83.1
				c0-12.7,10.29-22.99,22.99-22.99H543.94z M543.94,15.33h-66.66c-4.23,0-7.66,3.43-7.66,7.66v22.99h81.99V22.99
				C551.6,18.76,548.17,15.33,543.94,15.33z"/>
		</g>
		<g>
			<path class="st0" d="M22.99,15.33h94.59c0.65,0,1.18-0.53,1.18-1.18V1.18c0-0.65-0.53-1.18-1.18-1.18H22.99
				C10.29,0,0,10.29,0,22.99v61.3c0,12.7,10.29,22.99,22.99,22.99h81.4c0.65,0,1.18-0.53,1.18-1.18V47.16
				c0-0.65-0.53-1.18-1.18-1.18H73.02c-0.65,0-1.18,0.53-1.18,1.18v12.96c0,0.65,0.53,1.18,1.18,1.18h17.22v30.65H22.99
				c-4.23,0-7.66-3.43-7.66-7.66v-61.3C15.33,18.76,18.76,15.33,22.99,15.33z"/>
		</g>
		<g>
			<path class="st0" d="M256.62,29.12v-6.13c0-4.23,3.43-7.66,7.66-7.66h40.68c0.65,0,1.18-0.53,1.18-1.18V1.18
				c0-0.65-0.53-1.18-1.18-1.18h-40.68c-12.7,0-22.99,10.29-22.99,22.99v9.2c0,29.88,93.48,29.12,93.48,45.97v6.13
				c0,4.23-3.43,7.66-7.66,7.66h-54.28c-0.65,0-1.18,0.53-1.18,1.18v12.96c0,0.65,0.53,1.18,1.18,1.18h54.28
				c12.7,0,22.99-10.29,22.99-22.99v-9.2C350.1,46.74,256.62,45.97,256.62,29.12z"/>
		</g>
		<g>
			<path class="st0" d="M259.33,91.95H153.24c-4.23,0-7.66-3.43-7.66-7.66V61.3h55.52c0.65,0,1.18-0.53,1.18-1.18V47.16
				c0-0.65-0.53-1.18-1.18-1.18h-55.52V15.33h83.16c0.65,0,1.18-0.53,1.18-1.18V1.18c0-0.65-0.53-1.18-1.18-1.18h-97.3
				c-0.65,0-1.18,0.53-1.18,1.18v83.1c0,12.7,10.29,22.99,22.99,22.99h106.09c0.65,0,1.18-0.53,1.18-1.18V93.13
				C260.52,92.48,259.99,91.95,259.33,91.95z"/>
		</g>
	</g>
	<g>
		<path class="st1" d="M27.71,143.18v-11.34c0-2.57,1.21-3.78,3.78-3.78h6.02c2.57,0,3.78,1.22,3.78,3.78v2.03H38.7v-1.94
			c0-1.08-0.41-1.49-1.46-1.49h-5.48c-1.05,0-1.46,0.4-1.46,1.49v11.18c0,1.08,0.4,1.48,1.46,1.48h5.48c1.05,0,1.46-0.4,1.46-1.48
			v-3.83h-4.48v-2.32h7.07v6.24c0,2.57-1.21,3.78-3.78,3.78h-6.02C28.92,146.96,27.71,145.75,27.71,143.18z"/>
		<path class="st1" d="M59.68,128.06h2.59v16.53h8.97v2.38H59.68V128.06z"/>
		<path class="st1" d="M87.79,143.18v-11.34c0-2.57,1.21-3.78,3.78-3.78h6.29c2.57,0,3.78,1.22,3.78,3.78v11.34
			c0,2.57-1.22,3.78-3.78,3.78h-6.29C89,146.96,87.79,145.75,87.79,143.18z M97.56,144.59c1.08,0,1.49-0.4,1.49-1.48v-11.18
			c0-1.08-0.4-1.49-1.49-1.49h-5.72c-1.05,0-1.46,0.4-1.46,1.49v11.18c0,1.08,0.4,1.48,1.46,1.48H97.56z"/>
		<path class="st1" d="M120.05,128.06h9.4c2.57,0,3.78,1.22,3.78,3.78v2.59c0,1.49-0.65,2.38-1.76,2.86
			c1.32,0.46,1.97,1.4,1.97,2.89v3c0,2.57-1.22,3.78-3.78,3.78h-9.61V128.06z M129.15,136.13c1.08,0,1.49-0.4,1.49-1.46v-2.78
			c0-1.08-0.4-1.48-1.49-1.48h-6.51v5.72H129.15z M129.37,144.61c1.08,0,1.49-0.41,1.49-1.49v-3.21c0-1.08-0.4-1.49-1.49-1.49h-6.72
			v6.18H129.37z"/>
		<path class="st1" d="M161.47,141.8h-7.48l-1.73,5.16h-2.7l6.56-18.9h3.35l6.56,18.9h-2.84L161.47,141.8z M160.69,139.43
			l-2.94-8.86l-2.97,8.86H160.69z"/>
		<path class="st1" d="M183.18,128.06h2.59v16.53h8.97v2.38h-11.56V128.06z"/>
		<path class="st1" d="M232.11,128.06h3.05l5.86,12.94l5.89-12.94h3.05v18.9h-2.54v-14.69l-5.35,12.04h-2.13l-5.35-12.04v14.69
			h-2.48V128.06z"/>
		<path class="st1" d="M279.01,141.8h-7.48l-1.73,5.16h-2.7l6.56-18.9h3.35l6.56,18.9h-2.84L279.01,141.8z M278.23,139.43
			l-2.94-8.86l-2.97,8.86H278.23z"/>
		<path class="st1" d="M300.72,128.06h2.81l8.99,14.72v-14.72H315v18.9h-2.59l-9.21-15.01v15.01h-2.48V128.06z"/>
		<path class="st1" d="M344.08,141.8h-7.48l-1.73,5.16h-2.7l6.56-18.9h3.35l6.56,18.9h-2.84L344.08,141.8z M343.3,139.43l-2.94-8.86
			l-2.97,8.86H343.3z"/>
		<path class="st1" d="M364.95,143.18v-11.34c0-2.57,1.21-3.78,3.78-3.78h6.02c2.57,0,3.78,1.22,3.78,3.78v2.03h-2.59v-1.94
			c0-1.08-0.4-1.49-1.46-1.49H369c-1.05,0-1.46,0.4-1.46,1.49v11.18c0,1.08,0.4,1.48,1.46,1.48h5.48c1.05,0,1.46-0.4,1.46-1.48
			v-3.83h-4.48v-2.32h7.07v6.24c0,2.57-1.21,3.78-3.78,3.78h-6.02C366.17,146.96,364.95,145.75,364.95,143.18z"/>
		<path class="st1" d="M396.92,128.06h12.23v2.38h-9.64v5.67h8.02v2.38h-8.02v6.1h9.64v2.38h-12.23V128.06z"/>
		<path class="st1" d="M427.03,128.06h3.05l5.86,12.94l5.89-12.94h3.05v18.9h-2.54v-14.69l-5.35,12.04h-2.13l-5.35-12.04v14.69
			h-2.48V128.06z"/>
		<path class="st1" d="M463.78,128.06h12.23v2.38h-9.64v5.67h8.02v2.38h-8.02v6.1h9.64v2.38h-12.23V128.06z"/>
		<path class="st1" d="M493.88,128.06h2.81l8.99,14.72v-14.72h2.48v18.9h-2.59l-9.21-15.01v15.01h-2.48V128.06z"/>
		<path class="st1" d="M531.04,130.41h-5.56v-2.35h13.75v2.35h-5.59v16.55h-2.59V130.41z"/>
	</g>
</g>
</svg>
